HIERARCHY
ROOT mixamorig:Hips
{
	OFFSET -0.000008 104.274872 1.554316
	CHANNELS 6 Xposition Yposition Zposition Xrotation Yrotation Zrotation
	JOINT mixamorig:Spine
	{
		OFFSET -0.000005 10.181595 0.131519
		CHANNELS 6 Xposition Yposition Zposition Xrotation Yrotation Zrotation
		JOINT mixamorig:Spine1
		{
			OFFSET -0.000000 9.893959 -1.470707
			CHANNELS 6 Xposition Yposition Zposition Xrotation Yrotation Zrotation
			JOINT mixamorig:Spine2
			{
				OFFSET -0.000000 9.220757 -1.370641
				CHANNELS 6 Xposition Yposition Zposition Xrotation Yrotation Zrotation
				JOINT mixamorig:Neck
				{
					OFFSET 0.000001 16.740417 -2.049036
					CHANNELS 6 Xposition Yposition Zposition Xrotation Yrotation Zrotation
					JOINT mixamorig:Head
					{
						OFFSET 0.000000 9.617874 1.685006
						CHANNELS 6 Xposition Yposition Zposition Xrotation Yrotation Zrotation
						JOINT mixamorig:HeadTop_End
						{
							OFFSET 0.000002 22.037354 7.501101
							CHANNELS 6 Xposition Yposition Zposition Xrotation Yrotation Zrotation
							End Site
							{
								OFFSET 0.000168 2310.654297 -282.823242
							}
						}
					}
				}
				JOINT mixamorig:RightShoulder
				{
					OFFSET -4.569970 11.014908 -2.160885
					CHANNELS 6 Xposition Yposition Zposition Xrotation Yrotation Zrotation
					JOINT mixamorig:RightArm
					{
						OFFSET -10.592851 -0.524811 -2.232101
						CHANNELS 6 Xposition Yposition Zposition Xrotation Yrotation Zrotation
						JOINT mixamorig:RightForeArm
						{
							OFFSET -27.841511 0.000031 -0.000004
							CHANNELS 6 Xposition Yposition Zposition Xrotation Yrotation Zrotation
							JOINT mixamorig:RightHand
							{
								OFFSET -28.328831 -0.000015 0.000015
								CHANNELS 6 Xposition Yposition Zposition Xrotation Yrotation Zrotation
								JOINT mixamorig:RightHandThumb1
								{
									OFFSET -2.464806 -1.573990 2.681852
									CHANNELS 6 Xposition Yposition Zposition Xrotation Yrotation Zrotation
									JOINT mixamorig:RightHandThumb2
									{
										OFFSET -3.215179 -1.872803 1.924282
										CHANNELS 6 Xposition Yposition Zposition Xrotation Yrotation Zrotation
										JOINT mixamorig:RightHandThumb3
										{
											OFFSET -2.654831 -1.527969 1.512609
											CHANNELS 6 Xposition Yposition Zposition Xrotation Yrotation Zrotation
											JOINT mixamorig:RightHandThumb4
											{
												OFFSET -2.018814 -1.152008 1.108052
												CHANNELS 6 Xposition Yposition Zposition Xrotation Yrotation Zrotation
												End Site
												{
													OFFSET -188.809540 -114.533607 132.431396
												}
											}
										}
									}
								}
								JOINT mixamorig:RightHandIndex1
								{
									OFFSET -9.108284 -0.517868 2.259835
									CHANNELS 6 Xposition Yposition Zposition Xrotation Yrotation Zrotation
									JOINT mixamorig:RightHandIndex2
									{
										OFFSET -3.699989 0.000000 0.001215
										CHANNELS 6 Xposition Yposition Zposition Xrotation Yrotation Zrotation
										JOINT mixamorig:RightHandIndex3
										{
											OFFSET -2.850006 0.000031 -0.000522
											CHANNELS 6 Xposition Yposition Zposition Xrotation Yrotation Zrotation
											JOINT mixamorig:RightHandIndex4
											{
												OFFSET -2.772186 -0.000015 -0.000020
												CHANNELS 6 Xposition Yposition Zposition Xrotation Yrotation Zrotation
												End Site
												{
													OFFSET -277.218445 0.000000 -0.050231
												}
											}
										}
									}
								}
								JOINT mixamorig:RightHandMiddle1
								{
									OFFSET -9.532516 -0.000031 -0.000023
									CHANNELS 6 Xposition Yposition Zposition Xrotation Yrotation Zrotation
									JOINT mixamorig:RightHandMiddle2
									{
										OFFSET -3.700005 -0.000015 0.003713
										CHANNELS 6 Xposition Yposition Zposition Xrotation Yrotation Zrotation
										JOINT mixamorig:RightHandMiddle3
										{
											OFFSET -2.949974 0.000015 -0.002054
											CHANNELS 6 Xposition Yposition Zposition Xrotation Yrotation Zrotation
											JOINT mixamorig:RightHandMiddle4
											{
												OFFSET -2.946640 0.000000 -0.000156
												CHANNELS 6 Xposition Yposition Zposition Xrotation Yrotation Zrotation
												End Site
												{
													OFFSET -294.664337 0.000000 -0.113670
												}
											}
										}
									}
								}
								JOINT mixamorig:RightHandRing1
								{
									OFFSET -9.103600 -0.043076 -1.865134
									CHANNELS 6 Xposition Yposition Zposition Xrotation Yrotation Zrotation
									JOINT mixamorig:RightHandRing2
									{
										OFFSET -3.379288 0.000000 -0.001055
										CHANNELS 6 Xposition Yposition Zposition Xrotation Yrotation Zrotation
										JOINT mixamorig:RightHandRing3
										{
											OFFSET -2.889687 -0.000015 0.000379
											CHANNELS 6 Xposition Yposition Zposition Xrotation Yrotation Zrotation
											JOINT mixamorig:RightHandRing4
											{
												OFFSET -2.638809 -0.000015 0.000941
												CHANNELS 6 Xposition Yposition Zposition Xrotation Yrotation Zrotation
												End Site
												{
													OFFSET -263.880371 0.000000 0.516020
												}
											}
										}
									}
								}
								JOINT mixamorig:RightHandPinky1
								{
									OFFSET -8.076683 -0.486710 -3.806280
									CHANNELS 6 Xposition Yposition Zposition Xrotation Yrotation Zrotation
									JOINT mixamorig:RightHandPinky2
									{
										OFFSET -3.600014 -0.000015 -0.003747
										CHANNELS 6 Xposition Yposition Zposition Xrotation Yrotation Zrotation
										JOINT mixamorig:RightHandPinky3
										{
											OFFSET -2.099983 0.000000 -0.005739
											CHANNELS 6 Xposition Yposition Zposition Xrotation Yrotation Zrotation
											JOINT mixamorig:RightHandPinky4
											{
												OFFSET -2.115768 -0.000031 -0.003680
												CHANNELS 6 Xposition Yposition Zposition Xrotation Yrotation Zrotation
												End Site
												{
													OFFSET -211.577087 0.000000 -0.350686
												}
											}
										}
									}
								}
							}
						}
					}
				}
				JOINT mixamorig:LeftShoulder
				{
					OFFSET 4.570447 11.014725 -2.160855
					CHANNELS 6 Xposition Yposition Zposition Xrotation Yrotation Zrotation
					JOINT mixamorig:LeftArm
					{
						OFFSET 10.592371 -0.524597 -2.232119
						CHANNELS 6 Xposition Yposition Zposition Xrotation Yrotation Zrotation
						JOINT mixamorig:LeftForeArm
						{
							OFFSET 27.841532 -0.000031 0.000026
							CHANNELS 6 Xposition Yposition Zposition Xrotation Yrotation Zrotation
							JOINT mixamorig:LeftHand
							{
								OFFSET 28.328846 -0.000061 0.000022
								CHANNELS 6 Xposition Yposition Zposition Xrotation Yrotation Zrotation
								JOINT mixamorig:LeftHandThumb1
								{
									OFFSET 2.466141 -1.576172 2.681732
									CHANNELS 6 Xposition Yposition Zposition Xrotation Yrotation Zrotation
									JOINT mixamorig:LeftHandThumb2
									{
										OFFSET 3.217812 -1.872070 1.916482
										CHANNELS 6 Xposition Yposition Zposition Xrotation Yrotation Zrotation
										JOINT mixamorig:LeftHandThumb3
										{
											OFFSET 2.656029 -1.528778 1.514513
											CHANNELS 6 Xposition Yposition Zposition Xrotation Yrotation Zrotation
											JOINT mixamorig:LeftHandThumb4
											{
												OFFSET 2.020889 -1.154053 1.115139
												CHANNELS 6 Xposition Yposition Zposition Xrotation Yrotation Zrotation
												End Site
												{
													OFFSET 190.885437 -115.081749 130.048782
												}
											}
										}
									}
								}
								JOINT mixamorig:LeftHandIndex1
								{
									OFFSET 9.109314 -0.518021 2.259871
									CHANNELS 6 Xposition Yposition Zposition Xrotation Yrotation Zrotation
									JOINT mixamorig:LeftHandIndex2
									{
										OFFSET 3.699989 0.000000 -0.000322
										CHANNELS 6 Xposition Yposition Zposition Xrotation Yrotation Zrotation
										JOINT mixamorig:LeftHandIndex3
										{
											OFFSET 2.850006 0.000000 0.000352
											CHANNELS 6 Xposition Yposition Zposition Xrotation Yrotation Zrotation
											JOINT mixamorig:LeftHandIndex4
											{
												OFFSET 2.774864 -0.000031 -0.000027
												CHANNELS 6 Xposition Yposition Zposition Xrotation Yrotation Zrotation
												End Site
												{
													OFFSET 277.486267 0.000000 -0.009857
												}
											}
										}
									}
								}
								JOINT mixamorig:LeftHandMiddle1
								{
									OFFSET 9.533394 0.000061 0.000044
									CHANNELS 6 Xposition Yposition Zposition Xrotation Yrotation Zrotation
									JOINT mixamorig:LeftHandMiddle2
									{
										OFFSET 3.699989 -0.000015 -0.000231
										CHANNELS 6 Xposition Yposition Zposition Xrotation Yrotation Zrotation
										JOINT mixamorig:LeftHandMiddle3
										{
											OFFSET 2.949997 -0.000015 -0.000059
											CHANNELS 6 Xposition Yposition Zposition Xrotation Yrotation Zrotation
											JOINT mixamorig:LeftHandMiddle4
											{
												OFFSET 2.952896 0.000031 0.000063
												CHANNELS 6 Xposition Yposition Zposition Xrotation Yrotation Zrotation
												End Site
												{
													OFFSET 295.289337 0.000000 0.022810
												}
											}
										}
									}
								}
								JOINT mixamorig:LeftHandRing1
								{
									OFFSET 9.104523 -0.042999 -1.865074
									CHANNELS 6 Xposition Yposition Zposition Xrotation Yrotation Zrotation
									JOINT mixamorig:LeftHandRing2
									{
										OFFSET 3.150009 -0.000031 0.000043
										CHANNELS 6 Xposition Yposition Zposition Xrotation Yrotation Zrotation
										JOINT mixamorig:LeftHandRing3
										{
											OFFSET 2.949982 -0.000015 0.000040
											CHANNELS 6 Xposition Yposition Zposition Xrotation Yrotation Zrotation
											JOINT mixamorig:LeftHandRing4
											{
												OFFSET 2.644348 0.000000 0.000057
												CHANNELS 6 Xposition Yposition Zposition Xrotation Yrotation Zrotation
												End Site
												{
													OFFSET 264.434631 0.000000 0.012105
												}
											}
										}
									}
								}
								JOINT mixamorig:LeftHandPinky1
								{
									OFFSET 8.077789 -0.486847 -3.806259
									CHANNELS 6 Xposition Yposition Zposition Xrotation Yrotation Zrotation
									JOINT mixamorig:LeftHandPinky2
									{
										OFFSET 3.599953 0.000031 0.014727
										CHANNELS 6 Xposition Yposition Zposition Xrotation Yrotation Zrotation
										JOINT mixamorig:LeftHandPinky3
										{
											OFFSET 2.100021 0.000015 0.007705
											CHANNELS 6 Xposition Yposition Zposition Xrotation Yrotation Zrotation
											JOINT mixamorig:LeftHandPinky4
											{
												OFFSET 2.125504 0.000031 0.007517
												CHANNELS 6 Xposition Yposition Zposition Xrotation Yrotation Zrotation
												End Site
												{
													OFFSET 212.550781 0.000000 0.625752
												}
											}
										}
									}
								}
							}
						}
					}
				}
			}
		}
	}
	JOINT mixamorig:RightUpLeg
	{
		OFFSET -8.207787 -6.751648 -1.599560
		CHANNELS 6 Xposition Yposition Zposition Xrotation Yrotation Zrotation
		JOINT mixamorig:RightLeg
		{
			OFFSET -0.000002 -44.370117 0.345942
			CHANNELS 6 Xposition Yposition Zposition Xrotation Yrotation Zrotation
			JOINT mixamorig:RightFoot
			{
				OFFSET 0.000003 -44.423679 -3.043532
				CHANNELS 6 Xposition Yposition Zposition Xrotation Yrotation Zrotation
				JOINT mixamorig:RightToeBase
				{
					OFFSET -0.000002 -8.728671 10.710558
					CHANNELS 6 Xposition Yposition Zposition Xrotation Yrotation Zrotation
					JOINT mixamorig:RightToe_End
					{
						OFFSET -0.000001 -0.000679 9.278119
						CHANNELS 6 Xposition Yposition Zposition Xrotation Yrotation Zrotation
						End Site
						{
							OFFSET 0.000000 -0.067690 927.812134
						}
					}
				}
			}
		}
	}
	JOINT mixamorig:LeftUpLeg
	{
		OFFSET 8.207793 -6.751686 -1.599556
		CHANNELS 6 Xposition Yposition Zposition Xrotation Yrotation Zrotation
		JOINT mixamorig:LeftLeg
		{
			OFFSET -0.000004 -44.370014 0.346954
			CHANNELS 6 Xposition Yposition Zposition Xrotation Yrotation Zrotation
			JOINT mixamorig:LeftFoot
			{
				OFFSET -0.000001 -44.423672 -3.044401
				CHANNELS 6 Xposition Yposition Zposition Xrotation Yrotation Zrotation
				JOINT mixamorig:LeftToeBase
				{
					OFFSET -0.000002 -8.728669 10.710558
					CHANNELS 6 Xposition Yposition Zposition Xrotation Yrotation Zrotation
					JOINT mixamorig:LeftToe_End
					{
						OFFSET -0.000003 -0.000679 9.278133
						CHANNELS 6 Xposition Yposition Zposition Xrotation Yrotation Zrotation
						End Site
						{
							OFFSET 0.000000 -0.068021 927.813477
						}
					}
				}
			}
		}
	}
}
MOTION
Frames: 3
Frame Time: 0.033333
0.000006 104.270477 1.554256 0.000010 0.000003 -0.000113 -0.000005 10.181587 0.131522 0.000001 -0.000003 0.000084 -0.000000 9.893967 -1.470711 0.000001 0.000000 -0.000000 -0.000000 9.220802 -1.370642 0.000000 -0.000000 -0.000000 0.000001 16.740433 -2.049030 0.000000 -0.000000 -0.000000 0.000000 9.617859 1.685014 0.000000 0.000000 0.000000 0.000002 22.037384 7.501101 0.000000 -0.000000 0.000000 -4.569968 11.014880 -2.160881 0.000008 0.000001 -0.000038 -10.592877 -0.524745 -2.231941 67.454614 23.995177 -16.149870 -27.841534 0.000013 0.000540 -56.305180 113.646022 78.599372 -28.328814 0.000008 0.000023 -0.000320 -0.000043 0.000007 -2.464407 -1.573881 2.682351 -37.083450 -153.738898 12.606522 -3.215268 -1.872540 1.924628 152.854730 33.795868 19.727372 -2.654955 -1.527885 1.513070 149.069179 26.736130 -35.121116 -2.018815 -1.151996 1.108064 -0.000005 0.000001 0.000004 -9.108387 -0.517573 2.260162 107.775911 17.190604 -23.474971 -3.700066 0.000317 0.001557 104.363078 13.746622 -17.624279 -2.850087 0.000368 -0.000225 103.495910 10.968740 -13.885849 -2.772172 -0.000016 -0.000021 0.000001 0.000000 0.000000 -9.532617 0.000257 0.000276 100.993445 19.856687 -24.150362 -3.700070 0.000330 0.004009 99.978957 13.151907 -15.525519 -2.950074 0.000337 -0.001771 101.819706 11.482447 -14.101150 -2.946626 -0.000000 -0.000157 -0.000001 0.000001 0.000001 -9.103712 -0.042783 -1.864848 98.141424 22.783578 -26.109061 -3.379356 0.000316 -0.000780 99.827231 11.608066 -13.793408 -2.889756 0.000358 0.000685 105.156780 7.636472 -10.030000 -2.638808 -0.000016 0.000940 0.000000 -0.000000 0.000002 -8.076778 -0.486412 -3.806007 85.504850 24.947078 -22.966520 -3.600073 0.000264 -0.003518 86.603998 13.709388 -12.570131 -2.100018 0.000311 -0.005475 90.756494 7.146674 -7.014481 -2.115767 -0.000055 -0.003680 -0.000001 -0.000001 -0.000004 4.570446 11.014691 -2.160851 -0.000018 0.000010 -0.000021 10.592529 -0.524528 -2.232403 72.231306 -62.625192 47.867479 27.841717 -0.000075 -0.000075 240.404791 -70.766668 258.673170 28.328825 -0.000045 0.000029 0.000023 -0.000089 -0.000000 2.466186 -1.576164 2.681858 142.932719 190.634855 -168.736750 3.217846 -1.871957 1.916583 121.604592 168.413313 196.810057 2.656041 -1.528757 1.514637 -74.494674 23.828744 25.700269 2.020894 -1.154042 1.115155 0.000005 0.000001 0.000004 9.109283 -0.517758 2.260096 -117.401553 -9.071949 -14.855262 3.699935 0.000264 -0.000074 241.123491 -10.835222 341.733625 2.849956 0.000298 0.000596 59.689891 -170.720018 163.898558 2.774877 -0.000045 -0.000033 0.000002 0.000001 0.000001 9.533381 0.000305 0.000281 -114.963709 -7.619129 -11.916261 3.699945 0.000270 0.000012 -114.676841 -9.640103 -14.984955 2.949961 0.000238 0.000172 -114.641092 -9.311979 -14.474049 2.952860 -0.000016 0.000059 0.000002 -0.000000 -0.000001 9.104500 -0.042788 -1.864869 -112.597936 -7.098975 -10.629155 3.149959 0.000269 0.000300 -112.064587 -9.151174 -13.550981 2.949940 0.000267 0.000295 -110.257906 -8.737767 -12.514904 2.644323 0.000031 0.000061 0.000001 0.000000 0.000001 8.077748 -0.486628 -3.805995 -110.904076 -8.870900 -13.410995 3.599925 0.000267 0.014998 -111.219891 -7.066728 -10.835357 2.099978 0.000256 0.007945 -110.561570 -4.017065 -6.330489 2.125502 0.000001 0.007518 0.000001 0.000003 0.000000 -8.207786 -6.751667 -1.599560 -0.077001 -0.000003 0.000080 -0.000002 -44.370110 0.345938 0.153719 -0.000000 -0.000000 0.000000 -44.423679 -3.043532 -0.076700 0.000000 -0.000002 -0.000006 -8.728667 10.710559 -0.000009 -0.000000 -0.000000 -0.000001 -0.000679 9.278123 0.000000 -0.000000 -0.000000 8.207792 -6.751710 -1.599556 -0.074518 -0.000003 0.000081 -0.000002 -44.370014 0.346960 0.148822 0.000002 0.000000 -0.000001 -44.423664 -3.044403 -0.074314 0.000000 -0.000002 -0.000004 -8.728671 10.710558 0.000007 -0.000000 -0.000000 0.000000 -0.000680 9.278137 -0.000000 0.000000 -0.000001 
0.000006 104.270477 1.554256 0.000010 0.000003 -0.000113 -0.000005 10.181587 0.131522 0.000001 -0.000003 0.000084 -0.000000 9.893967 -1.470711 0.000001 0.000000 -0.000000 -0.000000 9.220802 -1.370642 0.000000 -0.000000 -0.000000 0.000001 16.740433 -2.049030 0.000000 -0.000000 -0.000000 0.000000 9.617859 1.685014 0.000000 0.000000 0.000000 0.000002 22.037384 7.501101 0.000000 -0.000000 0.000000 -4.569968 11.014880 -2.160881 0.000008 0.000001 -0.000038 -10.592885 -0.524735 -2.231945 67.113965 22.972593 -15.353058 -27.841537 0.000016 0.000548 -56.046890 113.545222 78.187061 -28.328827 0.000021 0.000021 -0.000319 -0.000042 0.000006 -2.464410 -1.573887 2.682361 -36.633395 -153.597362 13.482620 -3.215263 -1.872548 1.924632 153.037915 33.756707 19.184167 -2.654958 -1.527917 1.513078 149.175607 26.695963 -35.303561 -2.018819 -1.152000 1.108057 -0.000006 0.000001 0.000002 -9.108394 -0.517578 2.260172 108.282773 17.432700 -24.016521 -3.700055 0.000304 0.001556 104.889753 13.920069 -18.013130 -2.850070 0.000378 -0.000220 103.841702 11.073407 -14.104323 -2.772172 -0.000000 -0.000024 0.000000 0.000001 0.000000 -9.532623 0.000247 0.000285 101.491659 20.270342 -24.858301 -3.700077 0.000322 0.004020 100.328376 13.324843 -15.826704 -2.950078 0.000329 -0.001773 101.958667 11.549918 -14.218592 -2.946634 0.000001 -0.000156 0.000000 0.000000 0.000001 -9.103725 -0.042800 -1.864826 98.336952 22.960629 -26.398263 -3.379364 0.000313 -0.000769 100.078753 11.781581 -14.060625 -2.889747 0.000343 0.000679 105.193294 7.671738 -10.082599 -2.638801 -0.000002 0.000941 -0.000001 0.000001 -0.000000 -8.076787 -0.486426 -3.806012 85.489605 24.947309 -22.960762 -3.600060 0.000259 -0.003514 87.039928 13.939424 -12.883405 -2.100020 0.000315 -0.005471 91.202362 7.380790 -7.307479 -2.115783 -0.000013 -0.003682 -0.000003 -0.000000 -0.000003 4.570446 11.014691 -2.160851 -0.000018 0.000010 -0.000021 10.592534 -0.524533 -2.232396 72.129578 -64.910928 49.703939 27.841721 -0.000081 -0.000087 240.195951 -71.012254 258.183036 28.328840 -0.000029 0.000028 0.000023 -0.000089 -0.000000 2.466167 -1.576135 2.681879 142.325447 192.161471 -168.485549 3.217849 -1.871957 1.916587 121.498014 169.308532 196.764431 2.656050 -1.528762 1.514627 -74.949961 23.182709 25.765422 2.020898 -1.154070 1.115149 0.000004 0.000001 0.000006 9.109273 -0.517742 2.260102 -117.696181 -9.845015 -16.204974 3.699927 0.000278 -0.000104 241.031857 -12.055434 339.669296 2.849947 0.000286 0.000582 59.862667 -169.694711 162.198865 2.774885 -0.000031 -0.000028 -0.000002 0.000000 0.000001 9.533367 0.000306 0.000286 -115.213420 -8.153461 -12.809786 3.699955 0.000247 0.000021 -114.852295 -10.237955 -15.960747 2.949957 0.000240 0.000173 -114.863237 -9.594414 -14.973137 2.952875 -0.000031 0.000058 0.000001 0.000002 -0.000001 9.104502 -0.042764 -1.864844 -112.841931 -7.741548 -11.640821 3.149963 0.000293 0.000285 -112.242145 -9.280928 -13.787700 2.949939 0.000261 0.000305 -110.656175 -8.496826 -12.261167 2.644317 0.000060 0.000059 0.000001 -0.000001 0.000000 8.077731 -0.486614 -3.805993 -111.574234 -9.331118 -14.243062 3.599919 0.000310 0.014983 -110.988614 -6.872460 -10.510110 2.099978 0.000274 0.007950 -110.508643 -3.630539 -5.772254 2.125502 -0.000015 0.007518 0.000001 0.000000 0.000000 -8.207786 -6.751667 -1.599560 -0.077001 -0.000003 0.000080 -0.000002 -44.370110 0.345938 0.153719 -0.000000 -0.000000 0.000000 -44.423679 -3.043532 -0.076700 0.000000 -0.000002 -0.000006 -8.728667 10.710559 -0.000009 -0.000000 -0.000000 -0.000001 -0.000679 9.278123 0.000000 -0.000000 -0.000000 8.207792 -6.751710 -1.599556 -0.074518 -0.000003 0.000081 -0.000002 -44.370014 0.346960 0.148822 0.000002 0.000000 -0.000001 -44.423664 -3.044403 -0.074314 0.000000 -0.000002 -0.000004 -8.728671 10.710558 0.000007 -0.000000 -0.000000 0.000000 -0.000680 9.278137 -0.000000 0.000000 -0.000001 
0.000006 104.270477 1.554256 0.000010 0.000003 -0.000113 -0.000005 10.181587 0.131522 0.000001 -0.000003 0.000084 -0.000000 9.893967 -1.470711 0.000001 0.000000 -0.000000 -0.000000 9.220802 -1.370642 0.000000 -0.000000 -0.000000 0.000001 16.740433 -2.049030 0.000000 -0.000000 -0.000000 0.000000 9.617859 1.685014 0.000000 0.000000 0.000000 0.000002 22.037384 7.501101 0.000000 -0.000000 0.000000 -4.569968 11.014880 -2.160881 0.000008 0.000001 -0.000038 -10.592886 -0.524729 -2.231962 66.687071 19.720897 -13.048626 -27.841534 0.000011 0.000530 -56.864340 113.855722 79.481962 -28.328840 0.000005 0.000022 -0.000323 -0.000046 0.000008 -2.464406 -1.573884 2.682365 -37.346481 -153.723625 12.051437 -3.215258 -1.872542 1.924640 152.282086 33.642056 19.653282 -2.654953 -1.527881 1.513081 148.885078 26.890083 -34.030830 -2.018846 -1.152017 1.108053 -0.000008 0.000001 0.000004 -9.108377 -0.517572 2.260176 108.315121 17.049749 -23.510764 -3.700066 0.000313 0.001547 105.334788 13.411121 -17.495789 -2.850088 0.000370 -0.000217 104.591575 10.782735 -13.920338 -2.772155 0.000001 -0.000019 0.000000 -0.000000 -0.000000 -9.532615 0.000245 0.000278 101.563451 19.869741 -24.405147 -3.700084 0.000329 0.004011 100.596583 13.264409 -15.828950 -2.950067 0.000321 -0.001775 102.528455 11.617904 -14.446786 -2.946618 0.000001 -0.000153 0.000000 -0.000000 0.000000 -9.103711 -0.042786 -1.864826 98.618602 22.507920 -26.005904 -3.379346 0.000299 -0.000780 99.783265 11.663242 -13.848013 -2.889770 0.000345 0.000684 105.328846 7.733431 -10.187889 -2.638801 0.000013 0.000940 -0.000002 0.000000 -0.000000 -8.076773 -0.486401 -3.806023 85.927530 24.363111 -22.585916 -3.600082 0.000264 -0.003511 87.384771 13.577441 -12.615809 -2.100014 0.000312 -0.005476 91.635730 7.382839 -7.364926 -2.115762 -0.000055 -0.003683 0.000001 0.000003 -0.000003 4.570446 11.014691 -2.160851 -0.000018 0.000010 -0.000021 10.592534 -0.524529 -2.232394 72.256380 -65.440268 50.252567 27.841715 -0.000080 -0.000085 239.971866 -70.899652 258.046596 28.328829 -0.000013 0.000022 0.000023 -0.000089 0.000001 2.466175 -1.576123 2.681878 142.248812 193.500366 -168.342361 3.217838 -1.871942 1.916569 122.072119 170.568019 196.453876 2.656063 -1.528741 1.514627 -75.066757 22.957174 25.767541 2.020899 -1.154063 1.115150 0.000003 0.000001 0.000002 9.109265 -0.517753 2.260097 -117.450608 -9.513905 -15.589149 3.699923 0.000262 -0.000095 241.514314 -12.038517 339.887425 2.849950 0.000286 0.000581 59.829916 -169.623104 162.064843 2.774880 -0.000061 -0.000037 0.000004 -0.000001 -0.000000 9.533371 0.000304 0.000278 -114.177247 -7.677536 -11.828715 3.699947 0.000257 0.000002 -113.806839 -9.805216 -14.991102 2.949966 0.000252 0.000158 -114.157412 -9.352461 -14.403836 2.952866 -0.000030 0.000062 -0.000000 0.000000 -0.000000 9.104501 -0.042774 -1.864844 -111.667166 -7.297422 -10.736432 3.149963 0.000264 0.000284 -111.442213 -8.844670 -12.948360 2.949943 0.000267 0.000308 -110.471596 -8.203940 -11.799806 2.644309 0.000046 0.000056 0.000001 -0.000003 0.000000 8.077735 -0.486614 -3.806001 -110.798454 -8.896852 -13.421865 3.599924 0.000292 0.014996 -110.342314 -6.269090 -9.528793 2.099987 0.000267 0.007953 -110.267202 -3.241073 -5.192581 2.125496 -0.000001 0.007515 0.000000 -0.000000 -0.000000 -8.207786 -6.751667 -1.599560 -0.077001 -0.000003 0.000080 -0.000002 -44.370110 0.345938 0.153719 -0.000000 -0.000000 0.000000 -44.423679 -3.043532 -0.076700 0.000000 -0.000002 -0.000006 -8.728667 10.710559 -0.000009 -0.000000 -0.000000 -0.000001 -0.000679 9.278123 0.000000 -0.000000 -0.000000 8.207792 -6.751710 -1.599556 -0.074518 -0.000003 0.000081 -0.000002 -44.370014 0.346960 0.148822 0.000002 0.000000 -0.000001 -44.423664 -3.044403 -0.074314 0.000000 -0.000002 -0.000004 -8.728671 10.710558 0.000007 -0.000000 -0.000000 0.000000 -0.000680 9.278137 -0.000000 0.000000 -0.000001 
